<?xml version="1.0" encoding="UTF-8"?>
<svg id="a" data-name="Layer 1" xmlns="http://www.w3.org/2000/svg" viewBox="0 0 300 240">
  <defs>
    <style>
      .b {
        fill: none;
      }

      .c {
        fill: #b2b2b2;
      }
    </style>
  </defs>
  <path class="b" d="M217.1605,54.125c-2.3767-12.7541-7.22-21.188-14.3957-25.0687-8.86-4.7912-22.094-3.3981-40.452,4.258-2.116.8816-4.5526.4067-6.1826-1.2044-7.199-7.1213-23.482-10.9222-40.5097-9.4614-16.3974,1.4081-30.2316,7.3998-36.1057,15.6368-.051.0714-.1162.1252-.1698.1935-.1237.1583-.256.3069-.3964.4519-.1243.1279-.2497.2505-.3834.3646-.1429.122-.2927.2329-.4483.3409-.154.1067-.3082.2075-.4705.2976-.1551.0864-.3154.1619-.4804.2343-.1834.0804-.3675.1519-.5578.2124-.0832.0264-.1565.0689-.2413.0917-7.6689,2.0664-14.5491,4.4609-20.6135,7.1527,5.5565,5.1623,8.2195,11.8627,8.5857,12.8358,1.1063,2.9359-.3773,6.2125-3.3132,7.3188-.6591.2485-1.3359.3667-2.0017.3667-2.2968,0-4.4594-1.4031-5.3171-3.6799-.8799-2.2807-4.2453-8.7152-9.1097-10.8395-.043-.0188-.0779-.0479-.1204-.0676-1.8419,1.156-3.5709,2.3497-5.1734,3.5832,7.8145,4.415,12.067,11.8984,12.5549,12.7924,1.5024,2.7545.4871,6.2053-2.2669,7.7077-.8644.4716-1.7964.6952-2.7151.6952-2.0128,0-3.9612-1.0707-4.9931-2.9615-.0222-.0399-3.4918-6.1809-9.1496-8.8533-.6874-.3247-1.2744-.7736-1.7579-1.3015-.9085,1.146-1.7287,2.3166-2.4647,3.5101,7.5829,2.3717,11.2772,9.1419,11.6989,9.9591,1.438,2.7884.3429,6.2148-2.4455,7.6528-.8333.4294-1.7232.633-2.5997.633-2.0583,0-4.0455-1.1223-5.0541-3.0785,0,0-2.0871-3.7665-5.6056-4.4866-.144-.0295-.2727-.0888-.4117-.1284-6.2958,19.8294-8.7962,40.7634-7.23,60.838,1.8397,23.5608,8.2764,36.979,10.2048,40.5307,13.0875,24.0956,44.3366,21.973,57.1633,19.9392,9.7893-1.5511,18.7527-4.3784,24.9778-6.7055-.1576-.3064-.3151-.6126-.4721-.9192-.3234.0058-.6544.0117-.9759.0175-17.4493.324-31.2358.5759-41.8023-4.8688-11.6062-5.9806-17.8565-17.9441-20.2654-38.7904-4.8256-41.738,10.4334-51.1,15.4476-54.1763.2208-.1354.4105-.2469.557-.349,2.4677-1.9368,6.0017-1.478,7.9379.9903,1.9373,2.4683,1.468,6.0683-.9997,8.0051-.4949.3884-1.0086.704-1.5534,1.038-3.4863,2.1387-14.095,8.6486-10.1027,43.1871,3.8031,32.9094,15.5657,34.179,46.1363,33.6817-19.0992-39.431-31.537-79.3201-4.9887-106.6238,9.3893-9.6563,20.8557-15.8978,33.9332-18.6068-.0144-1.8264-.329-3.307-.9942-4.1379-1.0563-1.3198-4.405-.7018-5.7953-.3756-3.058.7207-6.1127-1.175-6.8317-4.2292s1.175-6.1127,4.2286-6.8311c9.599-2.258,14.6864,1.1107,17.2673,4.334,2.2205,2.7731,3.2039,6.2117,3.4292,9.803,6.5166-.339,13.3543.0953,20.4734,1.3322,14.7729,2.567,26.7731,7.8475,32.0402,10.4339,4.2788-2.2421,12.9896-6.3593,23.6665-9.0459-1.1997-.8223-2.0971-2.0857-2.3848-3.6289ZM81.3113,113.9513c-.9553,2.3312-1.5911,6.6758-2.1515,10.5088-1.2816,8.7601-2.491,17.0337-9.2739,18.3175-.7212.1365-1.4302.2042-2.1204.2042-2.4888,0-4.7423-.876-6.491-2.5537-3.3565-3.2233-4.3385-8.6808-3.0869-17.1752.456-3.1035,3.3354-5.2478,6.4478-4.7928,1.4857.2191,2.7518.9942,3.6183,2.0838.5992-3.9551,1.2993-7.8653,2.5454-10.9022,1.1895-2.9043,4.5049-4.2924,7.4109-3.1018,2.9038,1.1906,4.2919,4.5088,3.1013,7.4114ZM99.1766,48.5555c-1.073,1.0724-2.4999,1.6633-4.0167,1.6633s-2.9437-.5909-4.0167-1.6644c-1.073-1.0719-1.6644-2.4988-1.6644-4.0167s.5914-2.9448,1.6644-4.0178c1.073-1.0724,2.4999-1.6633,4.0167-1.6633s2.9426.5909,4.0167,1.6633c1.073,1.073,1.6644,2.4999,1.6644,4.0178s-.5914,2.9448-1.6644,4.0178Z"/>
  <path class="c" d="M78.21,106.5399c-2.906-1.1906-6.2214.1975-7.4109,3.1018-1.2461,3.0369-1.9462,6.9471-2.5454,10.9022-.8666-1.0896-2.1326-1.8646-3.6183-2.0838-3.1124-.4549-5.9917,1.6893-6.4478,4.7928-1.2516,8.4944-.2696,13.9519,3.0869,17.1752,1.7487,1.6777,4.0023,2.5537,6.491,2.5537.6902,0,1.3992-.0677,2.1204-.2042,6.7829-1.2838,7.9923-9.5574,9.2739-18.3175.5603-3.833,1.1961-8.1776,2.1515-10.5088,1.1906-2.9027-.1975-6.2209-3.1013-7.4114Z"/>
  <path class="c" d="M53.7072,64.4663c.8577,2.2769,3.0203,3.6799,5.3171,3.6799.6657,0,1.3426-.1182,2.0017-.3667,2.9359-1.1063,4.4195-4.3828,3.3132-7.3188-.3662-.9732-3.0292-7.6735-8.5857-12.8358-4.1473,1.8408-7.9099,3.8217-11.2764,5.9343.0424.0198.0774.0488.1204.0676,4.8644,2.1243,8.2298,8.5587,9.1097,10.8395Z"/>
  <path class="c" d="M30.1108,83.8978c1.0086,1.9562,2.9959,3.0785,5.0541,3.0785.8766,0,1.7665-.2036,2.5997-.633,2.7884-1.438,3.8835-4.8644,2.4455-7.6528-.4216-.8172-4.116-7.5874-11.6989-9.9591-1.2275,1.9909-2.2222,4.0443-2.9609,6.1616-.5082,1.4562-.9906,2.9206-1.4569,4.3898.139.0397.2677.099.4117.1284,3.5185.7201,5.6056,4.4866,5.6056,4.4866Z"/>
  <path class="c" d="M41.8835,75.3762c1.0319,1.8907,2.9803,2.9615,4.9931,2.9615.9187,0,1.8508-.2236,2.7151-.6952,2.754-1.5024,3.7692-4.9532,2.2669-7.7077-.4879-.894-4.7404-8.3774-12.5549-12.7924-3.2943,2.5357-6.0722,5.2337-8.3277,8.0789.4835.528,1.0705.9768,1.7579,1.3015,5.6577,2.6724,9.1274,8.8134,9.1496,8.8533Z"/>
  <g>
    <path d="M262.7554,60.2438c-11.5446-5.5371-24.0393-5.8923-35.222-4.1331.739-1.1689,1.0694-2.6004.7961-4.0672-3.0347-16.292-9.8176-27.3889-20.16-32.9812-14.8495-8.0311-33.2941-2.9459-46.9497,2.4333-12.0622-9.3465-31.5553-11.4564-46.5713-10.1676-18.8936,1.6223-34.7795,8.5593-43.085,18.6874-31.1684,8.7275-50.2595,22.5588-56.7406,41.135-18.6121,53.3447-6.6597,98.5007,2.2613,114.9247,4.779,8.8001,18.7597,27.1292,52.1636,27.1292,5.1185,0,10.6941-.4305,16.7613-1.3914,11.4475-1.8142,21.5863-5.1018,28.4901-7.7796,1.6818,3.1875,3.367,6.3555,5.038,9.4961,2.228,4.1876,4.4383,8.3396,6.5876,12.4417,1.0153,1.9373,2.9914,3.0447,5.0364,3.0447.8888,0,1.7909-.2097,2.633-.6502,1.9351-1.0144,3.0164-2.9891,3.0192-5.0318.0008-.8911-.1822-1.7937-.6247-2.6376-2.1604-4.1221-4.3817-8.2952-6.6198-12.5039-1.6067-3.0199-3.2169-6.0464-4.8164-9.0738.0447-.0445.0951-.083.1384-.1291,3.6305-3.848,3.3875-9.63,1.6244-13.3749-1.7443-3.7049-4.6691-4.1543-5.9529-4.1587v-.0011c-1.6788.0049-3.306.0204-4.9124.0395-19.1771-38.3711-32.1198-75.1048-9.3757-98.497,6.9085-7.1053,14.6797-11.4693,22.6598-13.9331,4.3057-1.3293,8.6711-2.1041,12.9965-2.453,26.2086-2.114,50.8948,11.3799,51.2537,11.5805,1.7709.9925,3.9379.9626,5.681-.0693.3351-.1981,33.8078-19.7067,58.9764-7.6339,25.5303,12.2442,32.9301,45.6736,18.4113,83.1847-13.7322,35.4799-38.1474,65.777-38.3926,66.0788-.8552,1.0546-1.2449,2.3221-1.2441,3.5819.0014,1.6509.6927,3.2878,2.0741,4.4093,2.4344,1.9773,6.0117,1.6078,7.9901-.8266,1.0452-1.2871,25.77-31.9415,40.169-69.1424,16.7868-43.3735,7.1046-82.5677-24.0945-97.5304ZM84.2317,200.5907c-12.8267,2.0339-44.0758,4.1565-57.1633-19.9392-1.9284-3.5518-8.3651-16.9699-10.2048-40.5307-1.5662-20.0746.9343-41.0085,7.23-60.838.4663-1.4692.9487-2.9336,1.4569-4.3898.7387-2.1172,1.7334-4.1707,2.9609-6.1616.7359-1.1935,1.5562-2.3641,2.4647-3.5101,2.2555-2.8452,5.0333-5.5433,8.3277-8.0789,1.6025-1.2336,3.3315-2.4272,5.1734-3.5832,3.3665-2.1126,7.1291-4.0935,11.2764-5.9343,6.0644-2.6918,12.9446-5.0863,20.6135-7.1527.0849-.0229.1581-.0653.2413-.0917.1903-.0605.3745-.132.5578-.2124.1651-.0724.3254-.1479.4804-.2343.1623-.0902.3165-.191.4705-.2976.1556-.108.3054-.2189.4483-.3409.1345-.1152.2608-.2381.3834-.3646.1384-.1427.2713-.2922.3964-.4519.0535-.0683.1187-.1221.1698-.1935,5.8741-8.237,19.7084-14.2287,36.1057-15.6368,17.0276-1.4608,33.3107,2.3401,40.5097,9.4614,1.63,1.6111,4.0666,2.086,6.1826,1.2044,18.358-7.6561,31.592-9.0492,40.452-4.258,7.1757,3.8808,12.019,12.3147,14.3957,25.0687.2877,1.5431,1.185,2.8066,2.3848,3.6289-10.6769,2.6865-19.3877,6.8037-23.6665,9.0459-5.2672-2.5864-17.2673-7.8669-32.0402-10.4339-7.1191-1.2369-13.9569-1.6712-20.4734-1.3322-.2252-3.5913-1.2086-7.0299-3.4292-9.803-2.5809-3.2233-7.6683-6.592-17.2673-4.334-3.0536.7185-4.9476,3.777-4.2286,6.8311s3.7737,4.9498,6.8317,4.2292c1.3903-.3262,4.739-.9443,5.7953.3756.6652.8309.9798,2.3115.9942,4.1379-13.0775,2.709-24.5439,8.9505-33.9332,18.6068-26.5484,27.3037-14.1105,67.1928,4.9887,106.6238-30.5706.4973-42.3332-.7723-46.1363-33.6817-3.9923-34.5384,6.6164-41.0484,10.1027-43.1871.5448-.334,1.0585-.6497,1.5534-1.038,2.4677-1.9368,2.9371-5.5368.9997-8.0051-1.9362-2.4683-5.4702-2.9271-7.9379-.9903-.1465.1021-.3362.2136-.557.349-5.0142,3.0763-20.2731,12.4384-15.4476,54.1763,2.4089,20.8462,8.6592,32.8097,20.2654,38.7904,10.5665,5.4447,24.3531,5.1928,41.8023,4.8688.3215-.0058.6524-.0117.9759-.0175.1115-.002.2247-.004.3365-.006.8824-.016,1.7615-.032,2.6588-.0476-.7038.28-1.4652.574-2.2674.8758-.0865.0326-.1681.0642-.2558.0969-6.225,2.3271-15.1885,5.1545-24.9778,6.7055Z"/>
    <path d="M95.16,50.2187c1.5168,0,2.9437-.5909,4.0167-1.6633,1.073-1.073,1.6644-2.4999,1.6644-4.0178s-.5914-2.9448-1.6644-4.0178c-1.0741-1.0724-2.4999-1.6633-4.0167-1.6633s-2.9437.5909-4.0167,1.6633c-1.073,1.073-1.6644,2.4999-1.6644,4.0178s.5914,2.9448,1.6644,4.0167c1.073,1.0735,2.4999,1.6644,4.0167,1.6644Z"/>
  </g>
  <path class="c" d="M238.5088,134.0381c2.6874-3.5079,1.8208-8.2475.6436-10.4112-1.1118-2.0411-3.1013-3.2572-5.3249-3.2061-2.0971.0083-4.0788.0533-5.9485.096-6.4766.1481-11.5907.2652-14.1882-1.4519-2.5931-1.7149-4.2408-6.6752-5.0364-15.1646-.294-3.124-3.0658-5.4214-6.187-5.1257-3.1235.2929-5.4192,3.063-5.1263,6.1865,1.8253,19.4576,8.8777,25.0288,18.1938,26.5012-9.8298,1.6189-16.3707-1.5889-19.9802-9.7771-1.8918-4.2952-3.3787-10.6497-4.0766-17.4348-.3207-3.1207-3.1102-5.387-6.2325-5.0697-3.1212.3212-5.3914,3.1113-5.0697,6.2325.8266,8.0334,2.5953,15.4393,4.982,20.854,4.8977,11.1119,13.8642,16.9627,25.6735,16.9621,2.5276,0,5.1873-.268,7.9635-.8105,9.326-1.8208,17.2595-6.2469,18.6731-7.3371.3917-.3013.7412-.6519,1.0408-1.0436ZM233.8552,131.7828c.162-.0017.334-.005.5082-.0183-.1742.0133-.3462.0166-.5082.0183Z"/>
</svg>