<svg version="1.1" id="Layer_1" xmlns="http://www.w3.org/2000/svg" xmlns:xlink="http://www.w3.org/1999/xlink" x="0px" y="0px"
	 width="100%" viewBox="0 0 864 848" enable-background="new 0 0 864 848" xml:space="preserve">
<path fill="#000000" opacity="1.000000" stroke="none" 
	d="
M865.000000,526.531372 
	C862.392578,539.686707 860.249817,552.490479 857.087524,565.037354 
	C848.763367,598.063904 836.490540,629.685791 822.493225,660.705078 
	C809.320740,689.896545 794.410950,718.159485 778.227783,745.757385 
	C761.705505,773.933716 743.830872,801.235352 724.462402,827.556946 
	C721.208862,831.978516 718.468201,836.372864 711.912231,835.604004 
	C705.383118,834.838257 701.453125,827.054321 705.257874,821.657471 
	C721.758789,798.251648 738.048218,774.704163 752.990112,750.260437 
	C773.079102,717.396362 791.288818,683.539368 806.961060,648.323975 
	C818.825317,621.665100 829.189636,594.485413 836.915771,566.321716 
	C844.700623,537.944031 849.152466,509.021759 849.422546,479.642914 
	C849.788696,439.811523 843.596619,401.340454 822.296814,366.602600 
	C805.075378,338.516296 780.476257,319.573120 749.873596,308.022522 
	C725.665405,298.885437 700.569580,294.565582 674.787476,293.045013 
	C644.939941,291.284668 615.617004,294.668396 586.519409,300.667175 
	C579.896301,302.032684 573.975525,300.500488 567.921265,298.819061 
	C533.673157,289.307343 498.748108,284.450165 463.260651,285.522644 
	C415.696259,286.960083 370.426453,297.375427 330.342957,324.466492 
	C298.891785,345.723236 273.313690,372.171509 261.093750,409.133911 
	C253.331497,432.612793 250.993774,456.818359 252.957169,481.563782 
	C256.227264,522.778198 267.700043,561.903503 281.772491,600.475647 
	C292.343262,629.449707 305.254883,657.413330 317.687958,685.589844 
	C318.775574,688.054565 320.222260,689.533936 323.159882,689.904907 
	C340.573303,692.103882 358.047455,692.017090 375.528900,691.494751 
	C382.239868,691.294189 386.937866,693.570251 389.337616,699.844421 
	C394.119293,712.346130 394.290741,729.158386 377.081207,737.283203 
	C369.262177,740.974548 361.829437,745.500549 353.774811,748.731445 
	C350.372498,750.096130 349.829437,751.885803 351.519501,755.259949 
	C362.409027,777.000916 373.109497,798.836609 383.869080,820.642700 
	C386.771851,826.525635 385.349396,832.325195 380.402710,834.819763 
	C375.278503,837.403931 369.838806,835.222656 366.893707,829.262817 
	C355.972504,807.162231 344.990601,785.090454 334.285156,762.885559 
	C332.167511,758.493225 330.241943,757.400696 325.192627,758.860596 
	C297.817078,766.775391 269.789520,770.689575 241.298767,768.998230 
	C191.314758,766.030884 145.142502,751.665161 104.867104,720.973999 
	C72.138504,696.033569 48.667980,664.088074 33.243504,626.000610 
	C17.739113,587.715759 12.381938,547.804749 12.526777,506.780640 
	C12.639344,474.897247 14.989563,443.222870 21.026791,411.970947 
	C30.079878,365.107330 46.525398,321.322052 77.676140,284.129608 
	C97.442535,260.529480 121.362106,242.320938 148.718948,228.384659 
	C166.152786,219.503418 184.404053,212.781662 203.056091,207.076904 
	C205.779083,206.244064 207.847427,204.900421 209.587616,202.813766 
	C225.333801,183.932526 245.955109,172.356827 268.524231,163.871094 
	C294.162781,154.231323 320.894928,149.692062 348.149384,149.165436 
	C379.720184,148.555405 410.606598,152.912674 439.739258,165.990784 
	C447.488647,169.469574 455.044830,173.469666 461.582672,178.989777 
	C464.479828,181.435928 467.152832,181.989716 470.680603,180.571915 
	C486.345520,174.276138 502.637268,169.954254 519.264465,167.473999 
	C547.814697,163.215225 575.744995,164.873550 601.766663,179.199219 
	C623.825195,191.343124 638.490662,210.024582 649.211609,232.331848 
	C654.803589,243.967209 658.255615,256.292236 661.621948,268.649872 
	C662.460266,271.727478 663.749268,272.991394 666.971619,273.193329 
	C685.735046,274.369232 704.534668,275.643677 722.897034,279.870636 
	C757.848145,287.916229 790.129272,301.450653 815.853516,327.533051 
	C831.970703,343.874725 843.904724,362.929504 852.500977,384.224121 
	C858.015137,397.883636 861.340210,412.093414 864.815979,426.675385 
	C865.000000,460.020905 865.000000,493.041779 865.000000,526.531372 
M100.335045,292.848785 
	C96.674477,291.192078 94.841866,293.784607 92.842979,296.047150 
	C82.304733,307.975311 74.258659,321.639069 66.721672,335.477325 
	C55.106350,356.803589 47.645813,379.818359 42.411003,403.474121 
	C34.573631,438.890747 31.853666,474.797394 31.881287,511.062988 
	C31.906872,544.659973 36.098492,577.386353 47.282967,609.159912 
	C59.665482,644.336975 79.356842,674.640381 107.883392,698.715088 
	C147.889893,732.478149 194.796738,748.208374 246.725845,749.684448 
	C268.433289,750.301453 289.901459,748.180420 311.055908,742.861938 
	C331.553345,737.708740 350.958527,730.027649 369.239563,719.451843 
	C371.782074,717.981018 373.566559,715.994385 372.586273,712.967346 
	C371.668335,710.132751 368.944824,711.161621 366.954163,711.211670 
	C346.073944,711.736511 325.393524,710.080994 304.810303,706.458374 
	C263.101318,699.117493 224.700958,684.189575 191.436310,657.469727 
	C162.592453,634.300903 142.920425,605.047974 134.361252,568.830383 
	C129.436844,547.993164 129.874878,526.885071 132.721970,505.802673 
	C136.680344,476.491211 146.411194,449.595642 166.348495,427.097321 
	C172.472824,420.186340 179.532303,414.352295 187.540329,409.766663 
	C192.677597,406.824921 198.327820,408.250549 201.099182,412.799713 
	C203.856674,417.326111 202.336975,422.771729 197.350769,426.014099 
	C185.247482,433.884491 175.556244,444.097778 168.565094,456.674988 
	C151.227325,487.866058 146.916458,521.484253 151.805786,556.299866 
	C157.023041,593.450684 177.146851,621.883362 206.131775,644.647400 
	C228.070740,661.877686 252.989029,673.154419 279.508850,681.144470 
	C284.506531,682.650146 289.575653,684.221252 295.187714,684.474915 
	C295.069916,680.446167 293.150757,677.453003 291.745239,674.361633 
	C270.760529,628.206238 251.945251,581.229858 241.061661,531.555054 
	C234.133255,499.932434 230.672119,468.028931 235.384781,435.453644 
	C239.488052,407.090851 249.239639,381.369415 266.276337,358.486511 
	C282.580017,336.588135 302.909485,318.976349 325.960602,304.467407 
	C328.602783,302.804321 330.975952,301.109375 331.382355,297.774567 
	C332.634125,287.502563 333.590118,277.233734 331.218933,266.971344 
	C329.159698,258.058838 327.024170,256.607452 318.137482,258.273315 
	C311.936249,259.435760 307.413910,256.979858 306.027954,251.697144 
	C304.657135,246.472061 307.399445,241.887070 313.187683,239.726578 
	C328.265808,234.098587 342.706299,240.871994 348.033783,256.313629 
	C350.771301,264.248230 351.523315,272.542328 351.391083,280.917511 
	C351.344971,283.838440 351.383759,286.760712 351.383759,289.654358 
	C354.177460,289.957550 355.853577,288.710938 357.672119,287.999969 
	C366.202301,284.664917 374.712769,281.292267 383.504761,278.667847 
	C404.970062,272.260345 426.871613,268.673279 449.243805,267.306305 
	C471.440369,265.949982 493.516754,266.858398 515.579163,269.094360 
	C536.664185,271.231323 557.251770,275.939728 577.671753,281.447021 
	C579.840210,282.031799 581.904785,281.885315 584.072693,281.424591 
	C602.002686,277.614044 620.161987,275.407288 638.420837,274.053497 
	C642.158630,273.776367 642.889709,272.609650 641.908630,269.081818 
	C638.012573,255.071808 633.270752,241.413742 625.718567,228.907440 
	C613.106873,208.022537 595.444214,193.483765 571.478638,187.775986 
	C552.237671,183.193451 532.762878,184.185898 513.493530,187.993149 
	C498.111450,191.032349 483.180847,195.762619 468.747589,201.933884 
	C464.222748,203.868576 460.206482,203.328506 456.787933,199.943604 
	C446.717957,189.972702 434.401093,183.820206 421.283844,179.191208 
	C395.487396,170.087830 368.871338,167.607040 341.618713,168.937714 
	C314.178619,170.277527 287.803741,175.640945 262.827393,187.112686 
	C247.563126,194.123611 233.454391,202.979538 223.166641,216.671600 
	C219.523087,221.520874 214.909409,223.891403 209.243515,225.493195 
	C184.131149,232.592651 160.043335,242.107101 138.337646,256.934479 
	C136.514496,258.179932 134.117432,259.038055 134.980377,262.064728 
	C130.081573,261.228973 114.545502,272.114777 110.427910,279.081512 
	C110.804977,279.527832 111.137474,280.141937 111.649788,280.495392 
	C122.707764,288.124390 131.224304,297.931122 137.357803,309.896454 
	C139.751190,314.565521 139.067215,318.621399 134.798828,321.595398 
	C130.925522,324.294067 125.884300,323.997864 123.358070,319.739502 
	C117.318512,309.558777 108.719818,301.656677 101.806633,293.026428 
	C102.793442,293.100128 103.785393,293.132507 104.766151,293.254761 
	C108.789429,293.756287 112.457932,289.573395 111.071121,285.722839 
	C110.203148,283.312836 108.445648,280.821716 105.579056,283.287262 
	C102.744240,285.725464 99.963982,288.580109 100.335045,292.848785 
M130.015045,318.230896 
	C131.384293,317.531464 132.595993,316.743164 131.930038,314.805450 
	C130.150040,314.089752 128.575500,314.565857 127.724907,316.124420 
	C126.973007,317.502136 128.063782,318.179596 130.015045,318.230896 
z"/>
<path fill="#000000" opacity="1.000000" stroke="none" 
	d="
M608.916138,408.697571 
	C613.935364,409.024719 616.755432,411.419830 617.448059,416.001526 
	C621.309692,441.546478 633.334900,454.083374 659.277649,459.936615 
	C666.504333,461.567169 673.739807,461.985504 681.088745,461.789520 
	C688.768799,461.584747 692.198364,464.088806 694.373352,471.177216 
	C696.258972,477.322479 694.046265,484.033386 688.531799,487.284821 
	C669.558960,498.471558 649.259949,501.827484 627.562500,497.708008 
	C607.550293,493.908478 590.981995,484.516937 578.826721,468.148865 
	C566.258118,451.224060 561.119995,431.849304 561.724731,410.893311 
	C561.872192,405.782593 565.625488,402.033600 570.507019,401.755341 
	C575.609558,401.464478 579.453308,404.963348 580.203918,410.427612 
	C581.198425,417.667023 581.236755,425.006470 582.975342,432.176392 
	C590.121582,461.647186 612.277283,479.530457 642.552917,480.054535 
	C646.500488,480.122894 650.450317,480.063934 654.399109,480.063934 
	C654.437378,479.650116 654.475586,479.236298 654.513855,478.822510 
	C650.839844,477.668549 647.085266,476.721405 643.505493,475.325775 
	C625.703796,468.385529 610.944580,457.951141 603.180969,439.635956 
	C600.343872,432.943176 599.292725,425.873505 599.155212,418.705231 
	C599.038452,412.619751 602.382690,409.317810 608.916138,408.697571 
z"/>
<path fill="#000000" opacity="1.000000" stroke="none" 
	d="
M189.686462,451.479095 
	C190.555862,448.593597 189.134827,446.238922 189.021408,443.330597 
	C193.397141,444.708710 195.226288,447.389008 195.237869,451.438507 
	C195.250412,455.825104 194.032410,460.016235 192.889221,464.175964 
	C191.590378,468.902191 192.702164,473.443115 193.435120,478.018341 
	C193.662598,479.438263 194.329254,480.915802 196.627899,481.469543 
	C200.495010,478.190704 201.655289,473.185181 202.635971,468.503204 
	C205.500412,454.827789 208.119781,441.087250 211.897888,427.641266 
	C213.689285,421.265869 216.254349,414.988403 220.378860,409.179077 
	C220.928925,410.064972 221.284439,410.402802 221.217148,410.562775 
	C217.126144,420.286865 217.740128,421.437469 228.037598,422.571350 
	C230.905029,422.887115 231.256104,424.707428 230.802689,426.817474 
	C227.935776,440.159210 225.129379,453.517822 221.959335,466.788788 
	C220.454193,473.089935 218.426010,479.295166 216.218903,485.393311 
	C212.281281,496.272888 205.455048,501.496460 196.231277,501.191742 
	C186.607452,500.873810 178.621979,494.233032 175.901367,483.500793 
	C173.584305,474.360352 173.811569,465.168152 177.028427,455.789856 
	C180.996552,457.551208 182.184799,461.077637 184.437317,463.582855 
	C185.456406,464.716217 186.422348,466.017059 188.160583,465.535095 
	C190.001556,465.024628 190.033813,463.333618 190.009018,461.848328 
	C189.953537,458.523590 189.760208,455.201202 189.686462,451.479095 
M212.037109,464.591644 
	C210.149902,466.461945 209.443222,468.485657 211.518295,470.638733 
	C212.650711,471.813751 214.149399,472.246948 215.545700,471.174774 
	C217.397491,469.752899 217.231918,467.646667 216.743622,465.705353 
	C216.163467,463.398987 214.632202,462.925049 212.037109,464.591644 
z"/>
<path fill="#000000" opacity="1.000000" stroke="none" 
	d="
M150.452332,273.683777 
	C156.492615,271.437836 161.461960,273.862701 165.911194,276.753265 
	C171.501404,280.385193 173.911987,286.529816 175.380920,292.689850 
	C176.321091,296.632507 173.816010,299.598938 170.054016,301.252472 
	C165.842209,303.103729 162.453903,301.653717 160.012695,298.265350 
	C158.087173,295.592743 156.658295,292.530182 155.237091,289.532593 
	C151.582352,281.824036 147.424606,274.484558 141.073181,268.606964 
	C140.366531,267.953033 139.545227,267.275848 139.749344,265.726624 
	C141.905945,264.400757 143.075104,266.055115 144.388077,267.482452 
	C146.275146,269.533844 147.278030,272.414246 150.452332,273.683777 
M168.457611,286.708527 
	C165.681091,286.600433 165.172546,289.176788 163.813858,290.702423 
	C161.925171,292.823181 161.771683,295.020325 164.559631,296.424530 
	C167.071564,297.689728 169.214371,296.719147 170.253204,294.178925 
	C171.287689,291.649384 171.741653,288.996002 168.457611,286.708527 
z"/>
<path fill="#000000" opacity="1.000000" stroke="none" 
	d="
M266.131653,251.262115 
	C260.565552,249.360474 258.200348,245.717117 259.457733,241.597137 
	C260.744171,237.381973 264.804962,234.962982 268.756195,236.058121 
	C272.790619,237.176300 275.297028,241.316971 274.218231,245.403397 
	C273.199249,249.263382 270.527740,251.183578 266.131653,251.262115 
z"/>
<path fill="#000000" opacity="1.000000" stroke="none" 
	d="
M157.429718,261.546936 
	C158.754196,263.414398 159.873459,265.008789 161.225311,266.934509 
	C154.981125,265.328552 153.721024,264.027588 152.435974,258.018524 
	C155.242661,257.441589 155.937881,259.832275 157.429718,261.546936 
z"/>
</svg>